<svg width="900" height="393" viewBox="0 0 900 393" fill="none" xmlns="http://www.w3.org/2000/svg">
<path d="M162.966 107.697C148.857 126.148 133.843 146.227 117.925 167.933C102.007 189.64 88.621 211.889 77.7676 234.681H162.966V107.697ZM242.196 8.93195V234.681H282.353V300.887H242.196V385H162.966V300.887H0.708984V241.736C8.6681 225.818 18.617 207.91 30.5556 188.012C42.4943 167.752 55.6992 147.131 70.1703 126.148C85.0032 104.803 100.56 84.0008 116.84 63.7413C133.12 43.4817 149.4 25.212 165.68 8.93195H242.196Z" fill="url(#paint0_linear_242_54)"/>
<path d="M588.069 196.152C588.069 259.463 575.95 308.122 551.711 342.129C527.833 375.775 494.731 392.597 452.403 392.597C410.075 392.597 376.791 375.775 352.552 342.129C328.675 308.122 316.736 259.463 316.736 196.152C316.736 164.677 319.811 136.82 325.961 112.581C332.473 88.3422 341.699 67.9017 353.637 51.26C365.576 34.6182 379.866 21.9559 396.508 13.2733C413.15 4.5906 431.781 0.249268 452.403 0.249268C494.731 0.249268 527.833 17.2528 551.711 51.26C575.95 84.9053 588.069 133.203 588.069 196.152ZM505.584 196.152C505.584 177.34 504.68 160.336 502.871 145.141C501.062 129.585 498.168 116.199 494.188 104.984C490.208 93.7688 484.782 85.0862 477.908 78.936C471.034 72.7857 462.532 69.7106 452.403 69.7106C442.273 69.7106 433.771 72.7857 426.897 78.936C420.385 85.0862 414.959 93.7688 410.617 104.984C406.638 116.199 403.744 129.585 401.935 145.141C400.126 160.336 399.221 177.34 399.221 196.152C399.221 214.964 400.126 232.149 401.935 247.705C403.744 263.262 406.638 276.647 410.617 287.863C414.959 299.078 420.385 307.76 426.897 313.911C433.771 320.061 442.273 323.136 452.403 323.136C462.532 323.136 471.034 320.061 477.908 313.911C484.782 307.76 490.208 299.078 494.188 287.863C498.168 276.647 501.062 263.262 502.871 247.705C504.68 232.149 505.584 214.964 505.584 196.152Z" fill="url(#paint1_linear_242_54)"/>
<path d="M779.826 107.697C765.716 126.148 750.703 146.227 734.784 167.933C718.866 189.64 705.48 211.889 694.627 234.681H779.826V107.697ZM859.055 8.93195V234.681H899.212V300.887H859.055V385H779.826V300.887H617.568V241.736C625.527 225.818 635.476 207.91 647.415 188.012C659.354 167.752 672.558 147.131 687.03 126.148C701.862 104.803 717.419 84.0008 733.699 63.7413C749.979 43.4817 766.259 25.212 782.539 8.93195H859.055Z" fill="url(#paint2_linear_242_54)"/>
<defs>
<linearGradient id="paint0_linear_242_54" x1="-41.3873" y1="-54.5079" x2="1178.06" y2="283.241" gradientUnits="userSpaceOnUse">
<stop stop-color="#80225F"/>
<stop offset="1" stop-color="#A22E34"/>
</linearGradient>
<linearGradient id="paint1_linear_242_54" x1="-41.3873" y1="-54.5079" x2="1178.06" y2="283.241" gradientUnits="userSpaceOnUse">
<stop stop-color="#80225F"/>
<stop offset="1" stop-color="#A22E34"/>
</linearGradient>
<linearGradient id="paint2_linear_242_54" x1="-41.3873" y1="-54.5079" x2="1178.06" y2="283.241" gradientUnits="userSpaceOnUse">
<stop stop-color="#80225F"/>
<stop offset="1" stop-color="#A22E34"/>
</linearGradient>
</defs>
</svg>
