<svg width="54" height="80" viewBox="0 0 54 80" fill="none" xmlns="http://www.w3.org/2000/svg">
<path d="M40.7183 31.5822V15.5233C40.7183 11.9367 39.2935 8.49698 36.7574 5.96088C34.2213 3.42477 30.7816 2 27.195 2C23.6084 2 20.1687 3.42477 17.6326 5.96088C15.0965 8.49698 13.6718 11.9367 13.6718 15.5233V31.5822" stroke="white" stroke-width="3.5" stroke-linecap="round" stroke-linejoin="round"/>
<path d="M44.5 31.6296H9.5C5.35786 31.6296 2 35.2874 2 39.7996V69.756C2 74.2681 5.35786 77.9259 9.5 77.9259H44.5C48.6421 77.9259 52 74.2681 52 69.756V39.7996C52 35.2874 48.6421 31.6296 44.5 31.6296Z" stroke="white" stroke-width="3.5" stroke-linecap="round" stroke-linejoin="round"/>
</svg>
