<svg width="32" height="39" viewBox="0 0 32 39" fill="none" xmlns="http://www.w3.org/2000/svg">
<path d="M10.5224 38.3999C8.71298 38.3999 7.24072 36.9329 7.24072 35.13V33.1174H9.06868V35.13C9.06868 35.9297 9.7213 36.5785 10.5224 36.5785C11.3235 36.5785 11.9761 35.9282 11.9761 35.13V14.9907H13.804V35.1284C13.804 36.9314 12.3318 38.3984 10.5224 38.3984V38.3999Z" fill="white"/>
<path d="M21.4777 38.3999C19.6683 38.3999 18.196 36.9329 18.196 35.13V14.9907H20.024V35.1284C20.024 35.9282 20.6766 36.5769 21.4777 36.5769C22.2788 36.5769 22.9314 35.9267 22.9314 35.1284V33.1159H24.7594V35.1284C24.7594 36.9314 23.2871 38.3984 21.4777 38.3984V38.3999Z" fill="white"/>
<path d="M30.172 25.8209V27.8334C30.172 28.6332 29.5194 29.2819 28.7183 29.2819C27.9173 29.2819 27.2646 28.6316 27.2646 27.8334V18.3733C27.2646 11.0381 23.3041 4.20229 16.9279 0.533184L16 0L15.0721 0.533184C8.69592 4.20229 4.73536 11.0381 4.73536 18.3733V27.8334C4.73536 28.6332 4.08274 29.2819 3.28165 29.2819C2.48057 29.2819 1.82795 28.6316 1.82795 27.8334V25.8209H0V27.8334C0 29.6364 1.47226 31.1034 3.28165 31.1034C5.09105 31.1034 6.56331 29.6364 6.56331 27.8334V18.3733C6.56331 11.6853 10.1744 5.45511 15.9861 2.11116L16 2.10346L16.0139 2.11116C21.8256 5.45511 25.4367 11.6869 25.4367 18.3748V27.835C25.4367 29.6379 26.9089 31.1049 28.7183 31.1049C30.5277 31.1049 32 29.6379 32 27.835V25.8224H30.172V25.8209Z" fill="white"/>
</svg>
