<svg width="85" height="62" viewBox="0 0 85 62" fill="none" xmlns="http://www.w3.org/2000/svg">
<path d="M69.0618 15.0496C68.5308 22.4208 63.0626 28.0992 57.0997 28.0992C51.1368 28.0992 45.6596 22.4226 45.1376 15.0496C44.5938 7.38115 49.917 2 57.0997 2C64.2824 2 69.6056 7.5207 69.0618 15.0496Z" stroke="white" stroke-width="3.5" stroke-linecap="round" stroke-linejoin="round"/>
<path d="M57.0999 39.6989C45.2882 39.6989 33.9297 45.5657 31.0841 56.9914C30.7071 58.503 31.655 59.9982 33.2083 59.9982H80.9934C82.5467 59.9982 83.4891 58.503 83.1176 56.9914C80.272 45.3827 68.9135 39.6989 57.0999 39.6989Z" stroke="white" stroke-width="3.5" stroke-miterlimit="10"/>
<path d="M32.4509 18.3011C32.0268 24.1879 27.6081 28.8242 22.845 28.8242C18.0819 28.8242 13.6559 24.1897 13.239 18.3011C12.8059 12.1769 17.1068 7.7998 22.845 7.7998C28.5832 7.7998 32.8841 12.2892 32.4509 18.3011Z" stroke="white" stroke-width="3.5" stroke-linecap="round" stroke-linejoin="round"/>
<path d="M33.5383 40.0613C30.2668 38.5624 26.6637 37.9861 22.8449 37.9861C13.4202 37.9861 4.33983 42.6713 2.06521 51.7969C1.76615 53.004 2.52376 54.1984 3.76347 54.1984H24.1136" stroke="white" stroke-width="3.5" stroke-miterlimit="10" stroke-linecap="round"/>
</svg>
