<svg width="834" height="792" viewBox="0 0 834 792" fill="none" xmlns="http://www.w3.org/2000/svg">
<path d="M118.017 716.855C118.417 713.923 118.817 710.991 119.226 708.059C119.492 708.059 119.769 708.078 120.035 708.078C120.178 709.296 120.311 710.515 120.559 712.676C121.434 710.591 121.958 709.354 122.891 707.155C123.081 710.287 123.224 712.504 123.357 714.713C123.452 714.713 123.548 714.713 123.643 714.713C123.976 707.84 124.319 700.958 124.652 694.133C83.2821 696.684 41.9218 699.244 0.552104 701.796C0.371242 701.243 0.180862 700.682 0 700.13C1.43737 699.397 2.80812 698.226 4.31212 698.016C9.64279 697.293 15.0115 696.779 20.3803 696.408C52.4689 694.199 84.5671 692.058 116.665 689.897C116.979 689.878 117.303 689.782 117.608 689.83C124.109 690.811 127.593 687.85 129.935 681.806C133.733 672.029 142.652 667.26 150.981 661.987C162.785 654.514 175.826 650.259 189.229 647.004C194.036 645.833 194.779 643.663 194.293 638.989C192.713 623.882 185.612 611.403 176.892 599.561C169.572 589.614 161.824 579.961 155.037 569.662C144.356 553.46 140.891 535.384 142.795 516.136C144.061 503.39 146.117 490.568 145.708 477.851C145.318 465.79 142.205 453.806 140.215 441.802C136.018 416.415 137.769 391.408 143.861 366.449C148.059 349.277 150.763 331.743 154.665 314.485C157.131 303.567 161.186 292.991 163.423 282.035C166.964 264.7 166.907 247.081 165.336 229.48C163.994 214.478 164.603 199.657 170.438 185.54C176.274 171.433 177.149 157.63 170.829 143.266C165.136 130.339 165.888 116.651 171.181 103.895C178.577 86.0851 184.013 67.9419 186.221 48.7515C189.286 22.1077 207.058 9.49496 230.96 3.517C243.554 0.366201 256.281 -1.85173 269.37 2.18434C278.137 4.88774 285.428 9.42832 291.93 15.6919C295.309 18.9474 299.079 21.8221 303.172 25.2966C308.341 17.8812 315.052 13.8547 323.276 13.1693C329.416 12.6553 335.641 12.9123 341.81 13.1407C374.136 14.3021 406.453 16.2249 438.79 16.6342C484.928 17.2149 531.086 16.7389 577.234 16.6818C589.742 16.6628 598.49 23.5927 600.052 36.1292C601.327 46.3336 601.784 56.6713 601.965 66.9614C602.822 116.594 603.478 166.235 604.154 215.868C604.211 219.828 604.249 223.854 603.621 227.728C601.632 239.922 594.102 247.233 582.594 251.069C579.985 251.935 575.588 251.164 576.035 256.266C575.064 255.143 573.941 253.144 573.37 253.287C570.904 253.925 568.61 255.191 566.088 256.286C566.069 256.219 565.774 255.048 565.574 254.239H551.771C551.609 256 551.466 257.504 551.19 260.379C550.829 257.77 550.648 256.457 550.257 253.601C548.278 255.353 546.992 256.495 546.107 257.275C546.012 254.172 544.213 253.611 541.014 255.971C540.815 256.124 539.882 255.276 538.968 254.686C538.587 255.933 538.244 257.076 537.531 259.427C538.244 252.545 533.428 255.286 531.657 255.343C529.83 255.4 525.222 252.525 525.375 257.161C524.851 256.685 523.899 255.838 522.947 254.991C522.043 256.086 521.139 257.19 520.444 258.018C520.396 257.561 520.273 256.485 520.111 255.105C515.608 255.105 511.106 254.886 506.641 255.238C505.299 255.343 504.081 257.057 503.319 257.647C503.338 257.818 503.186 256.609 503.062 255.638H496.342C496.265 257.218 496.17 259.084 496.066 261.083C494.067 259.589 497.551 253.944 491.42 255.857C491.858 260.131 492.287 264.348 492.782 269.298H585.126L585.249 271.449C579.367 271.64 573.493 271.916 567.611 272.011C561.423 272.116 555.236 272.011 549.049 272.068C543.023 272.116 536.997 272.249 530.972 272.344C524.785 272.439 518.597 272.563 512.41 272.601C506.26 272.649 500.102 272.611 493.6 272.611C494.352 281.368 488.669 284.9 481.892 288.546C481.892 292.801 481.816 297.408 481.92 302.015C481.977 304.633 482.016 307.327 482.672 309.83C483.282 312.162 480.207 314.618 483.072 316.703C481.673 318.016 480.492 319.93 478.836 320.53C476.057 321.529 472.982 321.7 469.555 322.31C469.907 327.612 470.526 332.78 470.536 337.949C470.564 361.833 467.594 385.307 460.788 408.257C457.152 420.517 453.22 432.73 450.346 445.181C446.548 461.659 448.613 477.451 457.38 492.377C465.157 505.627 474.353 517.516 485.661 527.949C494.742 536.326 503.405 545.188 511.782 554.279C520.33 563.56 522.329 574.374 517.902 586.463C512 602.588 500.597 614.277 487.86 624.977C480.702 630.993 473.248 636.666 466.185 642.787C456.695 651.002 454.458 658.808 457.989 668.888C458.875 671.411 460.074 672.601 462.968 672.877C493.181 675.761 521.358 670.316 546.536 652.649C563.641 640.655 582.775 636.162 603.383 635.534C629.789 634.724 655.89 635.895 681.801 641.635C699.002 645.443 712.662 654 721.886 668.869C726.055 675.599 730.957 677.665 738.82 677.598C768.32 677.341 797.819 677.95 827.319 678.312C829.46 678.341 831.593 678.94 833.639 680.13C799.494 683.129 765.397 681.291 730.32 681.368C734.061 686.813 737.278 691.801 740.8 696.551C748.253 706.603 756.069 716.398 763.36 726.564C769.1 734.56 768.948 743.051 765.369 752.237C757.154 773.341 739.61 781.917 719.62 786.667C697.108 792.017 674.157 792.388 651.074 790.932C596.634 787.505 542.204 784.221 487.603 783.621C453.573 783.25 419.485 781.022 385.588 777.862C363.437 775.796 341.562 770.685 319.621 766.668C314.785 765.782 310.13 763.86 305.447 762.251C295.262 758.757 285.324 754.084 274.872 751.951C266.723 750.286 257.737 750.543 249.494 752.018C231.427 755.245 213.265 755.055 195.083 755.759C165.974 756.892 137.179 753.455 108.355 750.476C102.158 749.838 96.0281 747.763 90.0977 745.688C85.8522 744.203 82.9775 740.852 83.2249 735.883C83.4629 731.181 85.6142 727.916 90.3833 726.402C92.0396 725.879 93.3627 724.289 95.2475 722.88V729.077C93.9339 729.077 91.9444 728.601 91.5922 729.163C90.2024 731.362 87.7941 734.769 88.5651 736.102C90.2119 738.948 93.3151 742.109 96.3517 742.784C106.347 745.002 116.551 746.402 126.727 747.649C133.895 748.524 141.158 748.629 148.478 748.591C146.669 747.22 146.184 742.927 142.214 745.745C141.481 745.202 140.368 744.384 139.254 743.565C138.94 743.984 138.626 744.403 138.321 744.822C137.284 743.099 136.236 741.376 135.199 739.662C134.989 739.719 134.79 739.786 134.58 739.843C135.047 741.423 135.513 743.013 135.979 744.593C135.808 744.688 135.646 744.784 135.475 744.879C133.228 741.68 130.982 738.482 128.735 735.283C128.412 735.474 128.088 735.655 127.755 735.845C128.317 737.225 128.869 738.606 129.887 741.119C122.938 733.323 120.816 724.946 119.749 716.065C119.264 716.245 118.588 716.502 117.912 716.769L117.998 716.855H118.017ZM286.418 41.4313C286.304 39.0801 286.352 39.0421 283.325 34.5586C281.649 32.0836 280.079 29.4183 277.937 27.3907C271.94 21.7174 264.772 18.5952 256.414 17.9098C246.238 17.0816 236.681 19.7374 227.21 22.6503C212.884 27.0576 204.374 36.7099 202.184 51.769C201.28 58.0325 200.557 64.3913 198.824 70.4454C195.055 83.6387 190.895 96.7274 186.506 109.73C183.346 119.088 183.146 128.274 185.926 137.707C187.792 144.066 189.638 150.491 190.771 157.011C193.046 170.148 188.867 182.503 184.641 194.564C180.376 206.729 179.748 218.999 180.747 231.574C182.623 255.01 180.195 278.122 174.893 300.92C171.895 313.828 167.878 326.488 164.689 339.358C162.947 346.402 162.452 353.77 160.586 360.776C152.39 391.437 150.363 422.202 157.616 453.349C160.691 466.542 162.147 479.888 160.329 493.452C159.425 500.201 158.492 506.96 157.94 513.747C156.636 529.777 159.035 545.103 168.03 558.791C174.903 569.252 181.728 579.79 189.4 589.661C201.251 604.92 209.543 621.445 210.932 640.959C211.161 644.11 212.922 644.748 215.635 645.005C225.554 645.947 234.778 643.368 243.887 639.903C259.603 633.925 275.776 630.555 292.682 631.707C306.599 632.659 320.516 633.592 334.413 634.677C351.357 636 366.807 640.826 380.143 652.173C389.015 659.721 399.704 664.357 411.356 666.442C421.236 668.212 431.089 670.154 441.493 672.125C441.293 670.164 441.274 669.393 441.131 668.65C438.637 655.485 442.607 644.215 451.507 634.601C455.048 630.774 459.198 627.528 463.035 623.977C474.077 613.773 485.804 604.206 495.923 593.164C506.889 581.199 505.794 573.498 494.704 561.847C480.74 547.178 466.204 532.956 453.306 517.393C440.208 501.572 432.612 482.715 433.744 461.83C434.439 448.998 437.133 436.157 440.027 423.573C444.187 405.439 452.173 388.315 454.049 369.514C455.524 354.76 454.848 340.129 453.04 325.489V337.778C450.289 331.562 453.354 324.356 448.423 317.664V343.575C448.423 343.575 448.337 343.575 448.29 343.566L445.976 309.64C445.548 309.64 445.11 309.659 444.682 309.668C444.682 314.028 444.577 318.397 444.71 322.757C444.844 326.888 445.224 331.01 445.5 335.132C445.32 335.132 445.139 335.132 444.958 335.132C443.511 326.136 442.064 317.131 440.617 308.136C440.16 308.202 439.713 308.269 439.256 308.336C439.627 314.656 439.998 320.986 440.37 327.307C440.151 327.317 439.922 327.326 439.703 327.345C438.552 319.501 437.4 311.658 436.248 303.824C436 303.852 435.753 303.871 435.515 303.9V328.116C434.458 322.938 432.812 314.847 431.089 306.394C430.746 307.536 430.508 308.336 430.051 309.878C429.014 304.947 428.138 300.758 427.262 296.57C427.081 296.589 426.9 296.599 426.719 296.618V307.031C424.587 298.502 422.474 290.011 420.484 282.054C420.151 288.317 419.78 295.19 419.418 302.063C417.438 293.99 419.171 285.3 413.983 277.894C413.497 280.026 413.012 282.158 412.527 284.281L411.641 284.138V272.04C405.987 272.04 400.685 272.02 395.392 272.04C365.103 272.144 334.813 272.258 304.524 272.316C303.705 272.316 302.886 271.64 302.077 271.268C302.163 270.621 302.239 269.983 302.325 269.336C338.135 268.251 373.993 269.422 410.394 268.736C409.937 265.509 409.547 262.749 409.166 259.988C408.852 260.017 408.529 260.055 408.214 260.084C407.957 260.969 407.7 261.845 407.434 262.758C406.844 262.073 406.273 261.407 405.625 260.664C405.187 261.664 404.854 262.435 404.293 263.72C403.893 260.997 403.588 258.941 403.284 256.895C403.055 256.942 402.827 256.98 402.589 257.028C402.179 258.294 401.77 259.56 401.199 261.34C400.019 259.189 399.143 257.59 398.267 255.99L397.106 256.266C396.754 257.951 396.392 259.636 395.944 261.807C395.164 259.665 394.555 257.989 393.622 255.448C392.441 257.447 391.737 258.637 391.004 259.874C390.166 258.599 389.357 257.361 388.243 255.648C387.51 257.095 387.054 258.008 386.559 258.989C385.835 257.932 385.15 256.933 384.731 256.333C381.675 256.761 379.172 257.114 375.878 257.58C376.135 257.913 375.602 257.228 374.936 256.39C374.27 257.847 373.784 258.894 373.042 260.502C372.432 258.513 372.023 257.18 371.395 255.134C370.776 256.781 370.471 257.599 370.3 258.066C369.072 257.199 367.835 256.333 366.302 255.257C365.988 256.771 365.769 257.78 365.579 258.684C364.57 257.59 363.561 256.514 362.333 255.181C361.543 256.866 360.867 258.304 360.048 260.046C359.42 257.951 358.934 256.333 358.449 254.705L357.459 254.743C356.973 256.181 356.497 257.618 355.974 259.16C355.241 257.599 354.603 256.266 353.68 254.296C353.013 255.791 352.661 256.581 352.3 257.399C351.567 256.543 350.843 255.705 349.967 254.686C349.33 255.838 348.892 256.619 348.473 257.371C348.035 256.533 347.626 255.752 346.836 254.229C346.331 256.609 346.017 258.075 345.446 260.75C344.96 258.037 344.703 256.562 344.218 253.868C343.428 255.914 343.076 256.819 342.733 257.742C342.228 256.78 341.724 255.81 340.677 253.811C340.296 256.409 340.087 257.847 339.887 259.274C339.782 255 336.993 254.648 333.89 254.924C332.519 255.048 331.177 255.572 328.93 256.133C328.997 255.905 328.692 256.885 328.178 258.532C327.988 250.812 321.277 259.541 320.192 252.763C319.583 256.124 319.288 257.751 318.754 260.664C318.383 257.304 318.155 255.296 317.936 253.287C317.469 253.097 317.013 252.897 316.546 252.706C315.613 254.42 314.68 256.143 314.071 257.266C313.405 255.219 312.558 252.611 311.377 249.003C310.692 250.917 310.454 251.564 310.121 252.506C309.807 251.507 309.616 250.879 309.017 248.956C308.817 253.011 308.683 255.648 308.55 258.294C308.245 258.294 307.941 258.294 307.636 258.294C307.255 255.248 306.884 252.192 306.446 248.67C306.066 250.127 305.809 251.117 305.437 252.564C304.933 250.26 304.543 248.499 303.962 245.862C303.048 249.489 302.401 252.059 301.753 254.639C301.573 254.639 301.392 254.639 301.211 254.629C300.506 248.965 299.802 243.302 299.098 237.628C298.85 237.647 298.612 237.676 298.365 237.695V249.07C297.955 249.108 297.546 249.156 297.137 249.194C296.432 243.006 295.728 236.819 295.024 230.632C294.776 230.651 294.529 230.66 294.281 230.679V243.073C293.843 243.073 293.405 243.064 292.967 243.054V59.0987C290.721 126.789 292.748 194.516 291.283 262.206C290.426 262.206 289.579 262.206 288.722 262.206C287.256 187.939 288.17 113.652 288.646 39.3371C289.036 44.1347 289.426 48.9323 289.826 53.7299C290.216 53.7299 290.607 53.7299 290.997 53.7204C291.444 50.4649 292.368 47.1903 292.177 43.9824C292.063 42.031 290.216 40.1939 289.141 38.2996C288.027 39.5846 286.923 40.8697 286.418 41.4504V41.4313ZM452.183 198.619C451.954 194.107 451.326 190.128 451.735 186.263C451.926 184.455 453.782 182.123 455.486 181.323C458.38 179.971 460.245 182.132 461.036 184.845C462.083 188.481 462.873 192.184 463.853 195.849C464.072 196.677 464.596 198.096 465.015 198.105C470.164 198.257 469.317 202.227 469.717 205.321C470.383 210.528 478.056 217.067 483.329 216.753C495.19 216.039 507.06 215.316 518.921 214.545C532.2 213.678 545.488 212.879 558.748 211.813C566.63 211.184 569.619 208.319 571.18 200.561C571.77 197.62 572.151 194.612 572.389 191.623C574.788 160.952 577.244 130.263 572.418 99.6117C570.609 88.0841 568.115 76.6613 565.783 65.2289C564.698 59.8983 560.9 57.7374 555.731 57.7755C550.657 57.8136 545.584 57.9278 540.52 58.1468C508.24 59.527 476.057 63.5917 443.644 60.5646C429.299 59.2224 414.868 58.7465 400.475 57.8136C384.35 56.7665 368.234 55.5005 352.1 54.6247C345.389 54.263 342.695 55.9383 341.429 62.2685C338.44 77.1182 335.194 92.0155 333.747 107.056C331.472 130.663 333.947 154.213 337.574 177.601C338.668 184.636 339.715 191.689 341.315 198.619C343.323 207.282 347.959 211.337 356.726 212.089C366.35 212.917 376.021 213.307 385.673 213.745C401.827 214.478 417.981 215.106 434.135 215.734C437.447 215.858 441.474 218.152 443.092 212.726C443.911 209.966 446.909 208.129 446.49 204.721C446.005 200.78 447.271 198.124 452.192 198.619H452.183ZM432.659 247.614C433.078 247.595 433.497 247.576 433.906 247.557C433.535 239.418 433.154 231.289 432.774 222.959C434.496 222.521 436.277 222.065 438.057 221.608C438.038 221.265 438.019 220.932 438.009 220.589C432.364 220.208 426.729 219.732 421.084 219.456C400.333 218.438 379.581 217.562 358.839 216.496C345.294 215.801 339.001 211.327 337.117 198.457C333.88 176.392 330.815 154.222 329.53 131.995C328.14 107.912 330.387 83.8672 337.25 60.5075C339.477 52.9208 343.609 49.8176 351.557 50.2745C364.532 51.0075 377.487 52.0165 390.452 52.8923C406.101 53.9489 421.789 54.6438 437.409 56.1287C461.188 58.3847 484.909 57.6898 508.669 56.1287C524.318 55.1007 539.986 53.9679 555.664 53.6919C565.935 53.511 569.143 56.5952 571.285 66.5997C575.778 87.5415 579.291 108.74 578.967 130.149C578.605 153.727 576.739 177.287 575.216 200.837C574.645 209.756 569.752 214.744 560.709 215.62C548.097 216.839 535.427 217.486 522.767 218.247C508.935 219.085 495.085 219.78 481.149 220.542C487.679 222.893 487.755 228.994 488.45 234.782C488.993 239.304 489.507 243.825 490.012 248.118C494.933 248.118 499.502 248.185 504.062 248.109C527.212 247.728 550.362 247.404 573.503 246.881C590.58 246.49 598.671 238.628 599.918 221.608C600.09 219.237 600.099 216.848 600.061 214.478C599.404 174.527 598.814 134.566 598.034 94.6142C597.691 77.3371 597.196 60.0506 596.33 42.7926C595.492 26.3341 588.476 20.3657 572.047 20.8131C554.77 21.2795 537.464 22.0791 520.196 21.7079C456.466 20.3562 392.736 18.6237 329.016 16.9198C315.813 16.5676 306.78 23.1548 304.171 36.1102C303.143 41.2219 302.391 46.4669 302.277 51.6643C301.696 77.9844 300.897 104.305 301.059 130.625C301.239 159.953 302.258 189.281 303.162 218.6C303.648 234.201 309.835 242.207 323.628 245.539C327.588 246.49 331.786 246.766 335.879 246.833C363.151 247.271 390.433 247.576 417.714 247.909C420.656 247.947 423.597 247.909 427.224 247.909M293.567 724.422C306.627 731.742 320.306 737.463 334.746 741.1C365.693 748.896 397.315 752.399 428.994 755.54C464.7 759.072 500.435 760.89 536.331 759.862C548.687 759.509 561.128 759.405 573.417 760.499C597.072 762.603 620.594 766.258 644.258 768.115C668.322 769.999 692.443 769.714 715.946 762.87C727.578 759.481 738.592 754.664 747.958 746.83C752.366 743.146 752.489 740.424 748.815 736.283C741.352 727.868 733.994 719.301 725.979 711.429C711.443 697.16 694.499 688.04 673.491 686.889C650.388 685.623 627.362 683.053 604.268 681.539C598.548 681.168 592.408 681.729 586.982 683.49C570.333 688.878 555.274 697.674 540.015 706.146C531.591 710.829 522.062 714.123 512.619 716.217C502.177 718.53 491.287 719.453 480.55 719.767C458.856 720.396 437.133 720.548 415.43 720.253C392.746 719.948 370.11 719.434 347.559 722.795C329.682 725.46 311.768 727.963 293.558 724.422H293.567ZM157.131 747.439C156.912 747.182 156.693 746.925 156.474 746.668C157.559 747.268 158.625 748.353 159.72 748.391C169.049 748.734 178.653 750.409 187.649 748.781C207.686 745.145 227.629 740.548 247.219 734.979C264.467 730.077 280.402 730.724 296.337 739.243C304.362 743.536 312.976 747.125 321.724 749.591C349.511 757.415 378.011 761.547 406.625 765.164C440.988 769.514 475.457 771.294 510.04 771.446C529.696 771.532 549.401 770.666 569.01 771.627C587.648 772.541 606.21 775.121 624.773 777.234C648.342 779.928 671.939 780.356 695.518 778.014C713.947 776.177 731.709 771.351 747.654 761.651C752.499 758.71 756.706 754.207 760.162 749.629C764.264 744.184 764.236 737.701 760.79 731.695C758.277 727.307 755.412 723.099 752.451 718.996C741.171 703.319 729.615 687.85 718.506 672.049C709.968 659.902 699.192 651.326 684.628 647.604C655.614 640.198 626.229 638.627 596.425 640.398C578.891 641.445 563.546 647.432 548.972 656.685C541.643 661.34 533.951 665.661 525.917 668.879C517.036 672.439 507.745 676.066 498.35 677.046C474.296 679.569 450.136 677.874 426.282 674.305C410.061 671.877 393.726 668.764 380.2 658.141C377.087 655.695 373.879 653.363 370.624 651.097C363.123 645.862 355.079 641.949 345.808 641.055C330.358 639.56 314.928 637.742 299.44 636.638C284.381 635.572 269.37 635.943 254.834 641.112C240.87 646.081 227.096 652.239 211.18 649.25C211.475 652.135 211.684 654.219 212.018 657.418C224.573 654.905 236.777 653.448 248.333 649.907C262.878 645.443 277.394 642.14 292.634 642.996C308.131 643.872 323.638 644.767 339.097 646.109C351.005 647.137 361.657 651.202 371.014 659.255C381.295 668.108 393.26 674.162 406.691 677.332C435.372 684.109 464.472 684.528 493.657 683.538C505.613 683.129 517.245 680.454 528.021 675.066C537.788 670.192 547.392 664.985 556.968 659.731C572.694 651.097 589.409 646.138 607.41 646.785C626.886 647.48 646.457 647.804 665.79 650.002C687.255 652.449 705.503 661.359 716.27 681.777C723.095 694.713 731.805 706.393 741.723 717.188C745.455 721.252 748.634 725.869 751.795 730.41C758.544 740.119 757.506 747.554 747.292 753.512C738.335 758.738 728.863 763.65 719.001 766.677C687.903 776.225 656.081 774.53 624.239 771.132C602.679 768.838 581.118 766.201 559.491 764.926C542.737 763.936 525.851 765.364 509.069 764.726C482.158 763.707 455.21 762.632 428.404 760.166C403.997 757.929 379.695 754.236 355.46 750.4C334.756 747.125 314.49 741.737 295.909 731.695C282.097 724.222 268.018 723.366 253.178 727.307C232.56 732.789 212.008 738.606 191.199 743.27C180.081 745.754 168.477 746.107 157.093 747.42L157.131 747.439ZM194.693 650.812C175.588 653.82 158.949 661.635 143.461 672.029C135.389 677.436 130.915 685.632 129.373 694.923C127.193 708.049 129.849 719.977 141.596 728.154C151.029 734.722 161.643 738.063 173.075 739.12C186.021 740.319 198.215 736.331 210.523 733.675C225.03 730.543 239.328 726.412 253.616 722.366C257.119 721.376 260.574 719.463 263.496 717.245C274.139 709.173 285.685 705.146 299.307 706.355C309.997 707.307 320.868 707.726 331.539 706.917C350.148 705.489 368.625 702.357 387.234 701.063C398.4 700.291 409.728 701.377 420.951 702.119C445.224 703.718 469.422 702.329 493.667 701.196C513.666 700.253 530.544 692.324 546.012 681.158C537.14 678.836 529.135 682.529 520.986 685.547C518.616 686.422 516.179 687.212 513.714 687.717C488.317 692.895 462.682 691.943 436.981 691.048C419.409 690.439 402.76 684.918 385.531 682.672C373.07 681.044 360.791 680.673 348.749 685.251C339.63 688.716 330.587 692.629 321.163 694.98C299.231 700.472 276.88 700.187 254.549 697.759C249.294 697.188 244.135 695.246 238.899 695.085C233.949 694.932 230.142 691.915 225.725 690.649C221.603 689.468 217.558 691.134 213.997 688.859C213.16 693.761 212.655 698.34 211.561 702.776C207.972 717.34 200.928 728.934 184.803 732.057C174.96 733.96 165.508 731.657 156.436 728.239C146.346 724.432 138.178 718.006 136.617 706.574C134.923 694.19 138.293 683.233 148.954 675.59C157.759 669.269 167.269 664.376 177.977 661.996C183.803 660.702 189.524 658.969 195.654 657.342C195.274 654.867 194.95 652.763 194.645 650.85L194.693 650.812ZM195.293 662.71C188.534 664.462 182.052 665.918 175.693 667.832C164.984 671.059 154.837 675.475 147.221 684.119C135.989 696.874 139.749 714.646 155.265 721.586C159.558 723.508 164.156 724.927 168.744 726.012C187.182 730.343 201.794 722.081 205.744 703.766C207.953 693.533 208.115 682.748 208.143 672.21C208.172 662.577 206.468 652.953 206.068 643.301C205.364 626.271 199.548 611.222 189.562 597.6C182.918 588.528 176.578 579.219 169.734 570.29C155.398 551.566 151.191 530.519 154.313 507.521C155.398 499.525 156.769 491.368 156.226 483.4C155.275 469.236 153.371 455.1 151.134 441.069C148.554 424.839 147.221 408.59 149.744 392.341C151.924 378.301 155.056 364.412 157.978 350.495C160.7 337.53 162.861 324.356 166.774 311.734C174.846 285.661 178.33 259.274 175.855 232.06C174.56 217.762 174.931 203.588 180.529 189.985C187.306 173.527 188.325 156.954 181.68 140.087C176.987 128.169 177.739 116.184 182.842 104.514C190.114 87.8652 194.731 70.5881 196.654 52.4829C198.434 35.6247 207.429 23.6593 223.279 17.2815C228.4 15.2254 233.692 13.3692 239.08 12.2269C257.281 8.37171 273.311 12.4078 286.485 26.1152C290.074 29.8467 293.967 33.283 297.775 36.9003C298.422 35.4153 299.478 33.7875 299.793 32.017C300.012 30.77 299.669 28.8757 298.822 28.0856C293.586 23.25 288.246 18.5 282.734 13.9879C273.844 6.70588 263.278 3.84065 252.102 4.60217C239.251 5.47792 226.886 8.82862 215.13 14.3782C204.402 19.4519 196.597 26.9814 193.275 38.5947C191.932 43.2971 190.428 48.0375 189.848 52.8542C187.782 69.9313 183.86 86.3612 176.512 102.068C170.048 115.88 169.61 130.082 176.293 144.304C179.919 152.024 181.319 160.362 179.367 168.863C177.882 175.326 176.255 181.78 174.16 188.063C170.258 199.781 168.392 211.565 169.572 224.006C171.19 241.065 172.057 258.265 168.763 275.209C166.574 286.489 162.899 297.474 160.405 308.697C156.312 327.06 153.342 345.688 148.621 363.87C142.357 388 140.273 412.188 144.052 436.814C145.775 448.066 147.954 459.25 149.754 470.492C152 484.514 148.925 498.259 147.44 512.1C145.146 533.48 148.83 553.413 162.147 570.956C168.753 579.666 175.198 588.509 181.595 597.372C188.201 606.519 194.76 615.924 196.797 627.185C200.728 648.889 203.289 670.811 200.994 692.895C199.947 702.947 197.263 712.714 187.001 717.864C177.035 722.871 158.682 719.529 151.143 711.276C146.936 706.669 145.641 701.386 148.249 695.484C151.334 688.507 156.407 683.157 163.28 680.273C172.723 676.304 182.461 672.962 192.246 669.907C196.559 668.565 196.968 666.556 195.274 662.691L195.293 662.71ZM458.151 321.757C458.237 322.995 458.266 324.08 458.408 325.156C461.312 346.754 460.417 368.248 455.105 389.324C451.279 404.487 445.767 419.213 441.712 434.32C438.047 447.961 435.401 461.935 439.028 476.052C444.644 497.926 456.057 516.412 472.363 532.004C480.721 540 488.879 548.206 496.903 556.535C510.877 571.013 511.391 580.399 499.445 596.696C498.693 597.714 498.046 598.866 497.132 599.704C488.736 607.414 480.197 614.963 471.906 622.778C464.548 629.698 456.952 636.466 450.384 644.091C445.139 650.183 444.016 658.132 445.31 666.128C446.224 671.782 447.414 672.505 453.516 671.811C453.268 670.744 453.059 669.697 452.773 668.669C450.003 658.836 451.707 649.964 459.322 642.977C467.137 635.819 475.362 629.089 483.539 622.34C494.619 613.202 504.937 603.445 511.191 590.175C518.235 575.211 517.036 566.397 505.508 554.46C494.504 543.056 482.815 532.309 471.963 520.762C460.683 508.768 451.926 494.937 446.767 479.24C441.131 462.097 444.663 445.086 449.213 428.304C453.22 413.531 458.218 398.995 461.473 384.06C465.595 365.145 467.604 345.936 465.072 326.469C464.5 322.072 462.939 320.491 458.161 321.738L458.151 321.757ZM657.632 668.593L657.927 667.508C655.481 666.661 653.082 665.29 650.569 665.043C638.766 663.9 626.924 662.377 615.092 662.358C607.829 662.349 600.251 663.919 593.341 666.299C572.789 673.372 553.427 682.986 534.751 694.218C527.069 698.835 518.055 702.3 509.23 703.785C476.866 709.211 444.206 708.792 411.565 706.403C392.993 705.041 374.441 705.251 356.126 708.554C336.184 712.152 316.356 713.685 296.128 711.153C286.285 709.925 277.014 713.123 268.085 719.891C273.273 719.891 277.347 720.024 281.411 719.863C287.351 719.625 293.282 718.987 299.231 718.854C309.512 718.625 319.906 719.558 330.054 718.378C352.709 715.741 375.26 711.505 398.143 712.695C426.824 714.18 455.476 714.979 484.167 713.39C504.776 712.247 524.642 708.63 542.89 698.159C555.236 691.077 567.82 684.395 580.528 677.988C598.9 668.726 617.919 662.463 639.032 666.613C645.134 667.813 651.435 667.965 657.642 668.593H657.632ZM447.328 236.629C446.043 236.752 444.768 236.867 443.321 237.009C443.987 241.426 444.577 245.377 445.348 250.479C445.929 248.775 446.081 248.328 446.233 247.89C446.405 247.937 446.576 247.985 446.738 248.042V264.558C446.548 264.605 446.348 264.653 446.157 264.691C445.938 263.491 445.719 262.292 445.5 261.093C445.034 266.89 444.825 272.601 445.091 278.284C445.386 284.576 447.975 288.155 452.716 288.793C464.025 290.297 474.743 287.632 484.814 282.844C487.013 281.797 489.279 277.703 489.05 275.238C487.689 260.759 485.604 246.348 483.862 232.659C472.154 234.449 460.693 236.21 449.032 237.99C451.64 253.487 454.401 269.945 457.171 286.413C456.733 286.489 456.295 286.566 455.848 286.651C453.021 270.079 450.203 253.506 447.328 236.648V236.629ZM744.922 769.847C744.236 770.133 743.523 770.38 742.866 770.723C726.969 778.938 709.739 782.193 692.177 783.821C658.651 786.934 625.41 782.441 592.084 779.785C570.79 778.091 549.401 777.32 528.04 776.644C496.846 775.654 465.548 776.349 434.458 774.036C406.901 771.979 379.534 767.096 352.166 762.908C331.158 759.69 310.625 754.636 291.711 744.279C287.351 741.89 282.363 740.243 277.47 739.3C264.734 736.854 239.271 741.557 224.516 748.962C231.655 747.753 238.833 746.554 245.705 744.384C261.926 739.262 277.375 740.252 292.672 747.963C300.116 751.723 307.988 755.055 316.042 757.101C332.719 761.337 349.615 764.764 366.492 768.21C399.781 774.997 433.516 777.891 467.404 779.081C487.517 779.785 507.679 779.3 527.783 780.109C569.905 781.803 612.017 783.754 654.101 786.115C674.148 787.238 693.985 786.772 713.709 782.907C724.96 780.699 735.755 777.301 744.912 769.876L744.922 769.847ZM542.385 674.752C549.848 673.933 556.883 673.181 563.898 672.363C564.822 672.258 565.707 671.811 566.592 671.477C572.208 669.336 578.025 667.594 583.393 664.947C597.967 657.76 613.378 656.294 629.218 657.494C639.917 658.303 651.169 657.703 660.593 663.596C666.485 667.279 672.349 669.002 679.069 669.478C686.475 670.002 693.824 671.182 701.201 672.077C691.644 662.948 680.535 656.932 667.96 655.657C647.656 653.601 627.228 652.382 606.82 651.773C582.689 651.059 561.985 660.949 542.385 674.752ZM376.763 673.181C371.176 667.603 365.141 663.929 357.164 666.784C351.538 668.803 345.969 671.001 340.372 673.105C330.644 676.77 321.182 681.92 311.12 683.757C291.863 687.26 272.302 685.366 252.864 683.595C247.714 683.129 242.488 683.528 237.291 683.528C237.224 684.081 237.148 684.633 237.081 685.185C239.061 686.003 240.965 687.184 243.021 687.565C251.693 689.173 260.365 691.144 269.122 691.896C294.138 694.037 318.478 691.201 341.296 679.873C352.49 674.314 363.665 669.088 376.744 673.191L376.763 673.181ZM213.902 679.692C216.025 679.559 217.586 679.454 219.147 679.369C231.455 678.712 243.764 677.512 256.062 677.551C272.844 677.608 289.626 678.94 306.408 679.093C314.633 679.169 322.277 675.923 329.597 671.734C290.864 668.86 252.302 670.221 213.493 673.743C213.674 676.332 213.769 677.703 213.902 679.692ZM348.359 663.396C347.607 663.043 347.197 662.739 346.75 662.663C328.131 659.436 309.407 657.979 290.492 658.712C278.489 659.179 266.466 659.179 254.444 659.464C240.594 659.788 226.753 660.197 212.417 660.588C212.808 663.995 213.027 665.956 213.217 667.594C224.764 666.956 235.787 666.175 246.829 665.795C257.909 665.414 269.008 665.157 280.098 665.338C297.013 665.604 313.966 665.756 330.806 667.07C337.221 667.575 342.562 666.661 348.359 663.396ZM195.321 689.04C186.944 691.467 178.825 693.885 170.667 696.16C168.278 696.827 165.803 697.331 163.337 697.512C161.405 697.655 159.177 696.532 157.55 697.169C155.722 697.883 153.418 699.796 153.152 701.472C152.809 703.595 153.675 706.622 155.151 708.183C160.481 713.818 167.792 714.884 175.093 715.474C182.261 716.065 187.639 712.676 191.514 706.983C195.083 701.729 196.197 695.76 195.331 689.03L195.321 689.04ZM452.583 230.27C451.916 230.584 451.259 230.908 450.593 231.222C449.641 229.232 448.394 227.329 447.804 225.234C446.757 221.551 445.015 220.751 442.188 223.321C441.303 224.121 440.36 226.129 440.76 226.805C441.769 228.518 443.302 230.632 445.025 231.089C453.42 233.307 461.959 233.088 470.402 231.184C474.714 230.213 478.922 228.785 483.986 227.329C479.007 222.579 475.057 218.809 471.107 215.049C470.945 215.192 470.774 215.335 470.612 215.487C472.259 219.437 473.905 223.397 475.552 227.348C475.095 227.509 474.629 227.671 474.172 227.843C468.575 220.37 467.385 211.422 466.557 203.198C460.502 203.702 454.915 204.159 450.155 204.559C450.936 212.803 451.764 221.551 452.592 230.299L452.583 230.27ZM704.428 684.252C705.694 679.778 705.713 679.721 702.238 678.521C700.601 677.95 698.907 677.389 697.203 677.227C680.678 675.656 664.153 674.095 647.618 672.705C637.842 671.877 628.047 671.106 618.242 670.821C614.568 670.716 610.856 672.039 607.172 672.715C607.229 673.305 607.286 673.895 607.334 674.485C623.507 676.056 639.651 677.96 655.852 679.121C672.12 680.282 688.56 679.559 704.428 684.261V684.252ZM254.625 654.752C290.759 652.991 326.922 651.173 362.418 661.311C362.618 660.55 362.828 659.788 363.028 659.026C358.658 657.189 354.422 654.219 349.91 653.715C329.501 651.43 309.036 649.288 288.532 648.222C277.08 647.623 265.476 649.089 254.615 654.743L254.625 654.752ZM195.826 674.59C184.174 677.75 172.847 681.139 162.89 687.917C170.733 686.794 178.463 685.347 186.173 683.824C188.03 683.462 189.81 682.71 191.675 682.434C196.178 681.758 197.463 679.312 195.826 674.59ZM478.046 289.802C471.507 291.582 466.252 293.01 460.379 294.6C464.834 297.217 474.315 294.828 478.046 289.802ZM455.943 183.532C454.686 192.517 456.942 198.353 461.197 198.143C459.341 193.679 460.055 188.424 455.943 183.532ZM460.483 302.301C466.795 305.147 475.79 302.567 477.856 298.046C472.382 299.388 466.937 300.72 460.483 302.301ZM430.765 287.584C430.346 287.67 429.927 287.746 429.508 287.832C430.879 295.466 432.26 303.1 433.63 310.744C434.03 310.668 434.43 310.582 434.839 310.506L430.765 287.584ZM466.852 309.145C473.867 310.344 476.666 309.307 477.846 305.547C474.105 306.774 470.478 307.955 466.852 309.145Z" fill="white"/>
<path d="M117.941 716.769C118.683 723.27 119.426 729.772 120.168 736.273C117.56 730.019 115.742 723.68 118.046 716.873C118.027 716.854 117.95 716.769 117.95 716.769H117.941Z" fill="white"/>
<path d="M421.646 93.1483H435.905C435.905 96.5276 435.925 99.6403 435.905 102.753C435.829 113.529 435.706 124.304 435.668 135.089C435.639 141.258 435.61 141.343 429.261 141.334C426.739 141.334 424.216 141.334 421.655 141.334V93.1483H421.646ZM433.107 138.487V99.5546C432.717 99.488 432.336 99.4214 431.946 99.3642C431.536 101.382 430.813 103.391 430.775 105.409C430.632 113.148 430.737 120.887 430.689 128.626C430.661 133.043 432.269 138.516 424.768 138.497H433.107V138.487Z" fill="white"/>
<path d="M527.46 139.449C527.64 126.37 536.579 117.384 549.172 117.622C559.72 117.822 569.448 127.769 569.429 138.326C569.4 149.253 557.663 160.467 546.555 160.181C535.76 159.905 527.307 150.719 527.46 139.449ZM565.955 139.059C566.031 129.578 558.273 121.467 549.096 121.42C539.825 121.372 532.505 128.35 532.448 137.288C532.381 147.064 540.329 154.813 550.429 154.803C557.93 154.803 565.897 146.721 565.955 139.059Z" fill="white"/>
<path d="M362.599 112.776C374.907 112.795 384.874 122.353 384.826 134.09C384.778 145.722 372.975 156.554 360.295 156.602C349.12 156.65 338.592 146.445 338.583 135.555C338.564 122.191 348.52 112.748 362.599 112.776ZM363.132 151.89C372.756 151.985 381.523 143.818 381.694 134.585C381.885 124.561 373.146 115.813 362.923 115.775C352.537 115.737 343.409 124.39 343.18 134.47C342.99 142.904 353.175 151.785 363.132 151.89Z" fill="white"/>
<path d="M478.35 99.8688H491.715C491.715 113.224 491.782 126.141 491.582 139.068C491.563 140.125 489.792 141.905 488.669 142.038C485.432 142.438 482.101 142.181 478.341 142.181V99.8688H478.35ZM480.844 139.163C489.116 141.362 489.802 140.886 489.716 133.433C489.621 125.199 489.44 116.965 489.231 108.731C489.193 107.217 488.812 105.704 488.583 104.2C487.527 112.862 487.546 121.372 487.517 129.882C487.508 134.309 489.078 139.82 480.844 139.173V139.163Z" fill="white"/>
<path d="M468.66 179.705C465.157 180.714 465.348 179.914 461.369 178.962C458.104 178.182 454.106 179.039 450.803 180.2C446.862 181.58 445.424 180.809 445.805 176.754C446.1 173.632 446.138 170.414 446.976 167.425C448.252 162.913 451.697 160.143 456.295 159.867C460.436 159.61 463.72 162.152 465.1 165.921C466.728 170.376 467.518 175.126 468.651 179.705H468.66Z" fill="white"/>
<path d="M370.063 186.102C373.071 186.102 376.088 186.025 379.096 186.121C383.57 186.263 385.084 188.262 385.046 193.327C385.017 197.543 382.913 199.39 378.83 199.257C372.661 199.057 366.493 198.848 360.325 198.648C356.384 198.524 354.48 196.268 354.651 192.555C354.823 188.986 356.079 185.997 360.553 186.092C363.723 186.159 366.893 186.102 370.063 186.102Z" fill="white"/>
<path d="M550.172 185.121C553.541 185.083 556.15 188.044 556.311 192.089C556.445 195.354 553.256 198.534 549.734 198.648C546.002 198.762 543.089 196.04 542.985 192.318C542.87 188.577 546.288 185.169 550.181 185.131L550.172 185.121ZM550.124 187.653C548.649 189.633 547.316 190.69 547.135 191.918C547.021 192.708 548.61 193.745 549.429 194.669C550.438 193.717 551.942 192.908 552.294 191.756C552.542 190.928 551.238 189.643 550.124 187.653Z" fill="white"/>
<path d="M478.141 235.877C479.979 250.764 481.806 265.662 483.643 280.55C482.968 280.635 482.282 280.721 481.606 280.807C479.826 265.9 478.046 251.002 476.266 236.096C476.894 236.019 477.523 235.943 478.141 235.867V235.877Z" fill="white"/>
<path d="M464.225 274.562L459.76 240.808C460.427 240.712 461.102 240.608 461.769 240.513C463.225 251.745 464.682 262.968 466.128 274.2C465.491 274.324 464.853 274.448 464.225 274.562Z" fill="white"/>
<path d="M473.01 250.165C474.067 260.702 475.133 271.23 476.189 281.768C475.694 281.816 475.19 281.873 474.695 281.92C473.61 271.345 472.525 260.759 471.439 250.184C471.963 250.184 472.487 250.174 473.01 250.165Z" fill="white"/>
<path d="M448.137 260.226C449.717 268.498 451.297 276.761 452.878 285.033C452.392 285.119 451.897 285.204 451.412 285.29C449.955 276.913 448.499 268.527 447.042 260.15C447.404 260.179 447.775 260.198 448.137 260.226Z" fill="white"/>
<path d="M462.149 206.434C463.529 213.802 464.91 221.179 466.547 229.937C465.233 228.147 464.101 227.205 463.748 226.024C461.807 219.58 459.208 213.155 460.598 206.406C461.121 206.406 461.635 206.425 462.159 206.434H462.149Z" fill="white"/>
<path d="M552.561 148.701C552.828 146.759 553.066 145.541 553.494 143.028C553.843 141.524 554.017 139.503 554.017 136.964C554.017 133.157 553.551 129.996 553.751 126.722C559.082 129.397 558.463 134.489 558.872 138.802C559.262 142.885 557.549 146.588 554.16 149.063C553.627 148.939 553.094 148.816 552.561 148.692V148.701Z" fill="white"/>
<path d="M546.107 126.151C544.089 130.577 542.718 134.204 542.604 137.916C542.499 141.343 543.861 144.856 545.346 148.178C541.272 148.13 538.482 145.094 537.711 139.43C536.969 133.918 540.577 127.541 546.098 126.151H546.107Z" fill="white"/>
<path d="M357.088 121.096C357.697 125.637 356.44 128.302 356.021 133.166C355.764 136.193 356.021 136.974 356.488 140.629C356.602 141.524 357.202 143.571 357.525 145.132C356.469 145.246 355.108 145.836 354.422 145.389C348.644 141.629 349.986 124.685 357.097 121.096H357.088Z" fill="white"/>
<path d="M369.653 121.496C369.91 124.237 369.757 126.988 369.948 129.663C368.71 134.375 367.168 143.97 366.064 147.397C369.224 145.912 372.68 141.914 373.879 137.802C376.411 131.158 374.583 122.838 369.653 121.496Z" fill="white"/>
</svg>
