<svg width="14" height="14" viewBox="0 0 14 14" fill="none" xmlns="http://www.w3.org/2000/svg">
<path d="M6.5275 10.5H7.5775V7.595H10.5V6.545H7.5775V3.5H6.5275V6.545H3.5V7.595H6.5275V10.5ZM7.00465 14C6.03942 14 5.13234 13.8163 4.2834 13.4488C3.43447 13.0813 2.69208 12.5796 2.05625 11.9438C1.42042 11.3079 0.91875 10.5651 0.55125 9.71528C0.18375 8.86548 0 7.95747 0 6.99125C0 6.02503 0.18375 5.11702 0.55125 4.26722C0.91875 3.41741 1.42042 2.6775 2.05625 2.0475C2.69208 1.4175 3.43491 0.91875 4.28472 0.55125C5.13452 0.18375 6.04253 0 7.00875 0C7.97497 0 8.88298 0.18375 9.73278 0.55125C10.5826 0.91875 11.3225 1.4175 11.9525 2.0475C12.5825 2.6775 13.0813 3.41833 13.4488 4.27C13.8163 5.12167 14 6.03012 14 6.99535C14 7.96058 13.8163 8.86766 13.4488 9.7166C13.0813 10.5655 12.5825 11.3068 11.9525 11.9405C11.3225 12.5742 10.5817 13.0759 9.73 13.4455C8.87833 13.8152 7.96988 14 7.00465 14ZM7.00875 12.95C8.65958 12.95 10.0625 12.3696 11.2175 11.2088C12.3725 10.0479 12.95 8.64208 12.95 6.99125C12.95 5.34042 12.3736 3.9375 11.2208 2.7825C10.068 1.6275 8.66104 1.05 7 1.05C5.355 1.05 3.95208 1.6264 2.79125 2.77921C1.63042 3.93203 1.05 5.33896 1.05 7C1.05 8.645 1.63042 10.0479 2.79125 11.2088C3.95208 12.3696 5.35792 12.95 7.00875 12.95Z" fill="#474747"/>
</svg>
