<svg width="12" height="14" viewBox="0 0 12 14" fill="none" xmlns="http://www.w3.org/2000/svg">
<path d="M1.09999 14C0.819988 14 0.574988 13.895 0.364988 13.685C0.154988 13.475 0.0499878 13.23 0.0499878 12.95V2.3975H1.09999V12.95H9.39499V14H1.09999ZM3.19999 11.9C2.91999 11.9 2.67499 11.795 2.46499 11.585C2.25499 11.375 2.14999 11.13 2.14999 10.85V1.05C2.14999 0.77 2.25499 0.525 2.46499 0.315C2.67499 0.105 2.91999 0 3.19999 0H10.9C11.18 0 11.425 0.105 11.635 0.315C11.845 0.525 11.95 0.77 11.95 1.05V10.85C11.95 11.13 11.845 11.375 11.635 11.585C11.425 11.795 11.18 11.9 10.9 11.9H3.19999ZM3.19999 10.85H10.9V1.05H3.19999V10.85Z" fill="#939393"/>
</svg>
