<svg width="28" height="28" viewBox="0 0 28 28" fill="none" xmlns="http://www.w3.org/2000/svg">
<path d="M3.5001 26.6C2.9202 27.1799 1.98 27.1799 1.4001 26.6V26.6C0.820199 26.0201 0.820199 25.0799 1.4001 24.5L11.9001 14L1.4001 3.49998C0.820198 2.92008 0.820199 1.97987 1.4001 1.39998V1.39998C1.98 0.820077 2.9202 0.820077 3.5001 1.39998L14.0001 11.9L24.5001 1.39998C25.08 0.820076 26.0202 0.820077 26.6001 1.39998V1.39998C27.18 1.97987 27.18 2.92008 26.6001 3.49998L16.1001 14L26.6001 24.5C27.18 25.0799 27.18 26.0201 26.6001 26.6V26.6C26.0202 27.1799 25.08 27.1799 24.5001 26.6L14.0001 16.1L3.5001 26.6Z" fill="#474747"/>
</svg>
