<svg width="15" height="14" viewBox="0 0 15 14" fill="none" xmlns="http://www.w3.org/2000/svg">
<path d="M1.45671 14C1.14559 14 0.873372 13.8833 0.640039 13.65C0.406706 13.4167 0.290039 13.1444 0.290039 12.8333V1.16667C0.290039 0.855556 0.406706 0.583333 0.640039 0.35C0.873372 0.116667 1.14559 0 1.45671 0H13.1234C13.4345 0 13.7067 0.116667 13.94 0.35C14.1734 0.583333 14.29 0.855556 14.29 1.16667V12.8333C14.29 13.1444 14.1734 13.4167 13.94 13.65C13.7067 13.8833 13.4345 14 13.1234 14H1.45671ZM1.45671 12.8333H6.70671V1.16667H1.45671V12.8333ZM7.87337 12.8333H13.1234V6.98056H7.87337V12.8333ZM7.87337 5.81389H13.1234V1.16667H7.87337V5.81389Z" fill="#474747"/>
</svg>
