<svg width="12" height="14" viewBox="0 0 12 14" fill="none" xmlns="http://www.w3.org/2000/svg">
<path d="M1.32129 14C1.0377 14 0.794922 13.9021 0.592969 13.7063C0.391016 13.5104 0.290039 13.275 0.290039 13V5.76667C0.290039 5.49167 0.391016 5.25625 0.592969 5.06042C0.794922 4.86458 1.0377 4.76667 1.32129 4.76667H2.52441V3.16667C2.52441 2.29056 2.84299 1.54375 3.48014 0.92625C4.11729 0.30875 4.88787 0 5.79186 0C6.69585 0 7.46582 0.30875 8.10176 0.92625C8.7377 1.54375 9.05566 2.29056 9.05566 3.16667V4.76667H10.2588C10.5424 4.76667 10.7852 4.86458 10.9871 5.06042C11.1891 5.25625 11.29 5.49167 11.29 5.76667V13C11.29 13.275 11.1891 13.5104 10.9871 13.7063C10.7852 13.9021 10.5424 14 10.2588 14H1.32129ZM1.32129 13H10.2588V5.76667H1.32129V13ZM3.55566 4.76667H8.02441V3.16667C8.02441 2.56481 7.80738 2.05324 7.37332 1.63195C6.93924 1.21065 6.41216 1 5.79207 1C5.17197 1 4.64421 1.21065 4.20879 1.63195C3.77337 2.05324 3.55566 2.56481 3.55566 3.16667V4.76667Z" fill="#474747"/>
</svg>
