<svg width="15" height="18" viewBox="0 0 15 18" fill="none" xmlns="http://www.w3.org/2000/svg">
<path d="M0.000457911 2.3816C0.000457903 1.72004 0.232002 1.15772 0.69509 0.694633C1.15818 0.231544 1.7205 1.4989e-07 2.38205 1.42001e-07C3.04361 1.34112e-07 3.60593 0.231544 4.06902 0.694633C4.53211 1.15772 4.76365 1.72004 4.76365 2.3816C4.76365 2.53274 4.75042 2.67968 4.72396 2.82243C4.6975 2.96517 4.6578 3.10931 4.60488 3.25485L8.95129 6.43031C9.24238 6.16569 9.56985 5.95399 9.9337 5.79522C10.2976 5.63645 10.6912 5.55706 11.1146 5.55706C11.9878 5.55706 12.7354 5.86799 13.3572 6.48985C13.9791 7.11171 14.29 7.85927 14.29 8.73252C14.29 9.60577 13.9791 10.3533 13.3572 10.9752C12.7354 11.5971 11.9878 11.908 11.1146 11.908C10.6912 11.908 10.2981 11.8293 9.93519 11.672C9.57234 11.5146 9.24437 11.3022 8.95129 11.0347L4.58503 14.2102C4.65119 14.3557 4.6975 14.498 4.72396 14.6369C4.75042 14.7758 4.76365 14.9247 4.76365 15.0834C4.76365 15.745 4.53211 16.3073 4.06902 16.7704C3.60593 17.2335 3.04361 17.465 2.38205 17.465C1.7205 17.465 1.15818 17.2335 0.695091 16.7704C0.232002 16.3073 0.000458071 15.745 0.000458063 15.0834C0.000458055 14.4219 0.232002 13.8596 0.69509 13.3965C1.15818 12.9334 1.7205 12.7019 2.38205 12.7019C2.67314 12.7019 2.94438 12.7515 3.19577 12.8507C3.44716 12.9499 3.6787 13.0856 3.8904 13.2576L8.23681 10.0821C8.17066 9.96301 8.12104 9.84063 8.08796 9.71493C8.05489 9.58924 8.02549 9.46023 7.99979 9.32792L4.68427 9.32792C4.55195 9.84393 4.2741 10.2706 3.85071 10.608C3.42731 10.9454 2.93776 11.1141 2.38205 11.1141C1.7205 11.1141 1.15818 10.8826 0.69509 10.4195C0.232002 9.9564 0.000457995 9.39408 0.000457987 8.73252C0.000457979 8.07097 0.232002 7.50865 0.69509 7.04556C1.15818 6.58247 1.7205 6.35093 2.38205 6.35093C2.93776 6.35093 3.42731 6.51962 3.85071 6.85701C4.2741 7.19441 4.55195 7.62111 4.68427 8.13712L7.99979 8.13712C8.02549 8.00481 8.05489 7.87581 8.08796 7.75011C8.12104 7.62442 8.17066 7.50203 8.23681 7.38295L3.8904 4.20749C3.6787 4.37949 3.44716 4.51511 3.19577 4.61434C2.94438 4.71358 2.67314 4.76319 2.38205 4.76319C1.7205 4.76319 1.15818 4.53165 0.69509 4.06856C0.232002 3.60547 0.000457919 3.04315 0.000457911 2.3816ZM1.19126 2.3816C1.19126 2.71899 1.30537 3.0018 1.53361 3.23004C1.76185 3.45828 2.04466 3.5724 2.38205 3.5724C2.71945 3.5724 3.00226 3.45828 3.2305 3.23004C3.45874 3.0018 3.57285 2.71899 3.57285 2.3816C3.57285 2.0442 3.45874 1.76139 3.2305 1.53315C3.00226 1.30492 2.71945 1.1908 2.38205 1.1908C2.04466 1.1908 1.76185 1.30492 1.53361 1.53315C1.30537 1.76139 1.19126 2.0442 1.19126 2.3816ZM1.19126 8.73252C1.19126 9.06991 1.30537 9.35273 1.53361 9.58097C1.76185 9.8092 2.04466 9.92332 2.38205 9.92332C2.71945 9.92332 3.00226 9.8092 3.2305 9.58097C3.45874 9.35273 3.57285 9.06991 3.57285 8.73252C3.57285 8.39513 3.45874 8.11231 3.2305 7.88408C3.00226 7.65584 2.71945 7.54172 2.38205 7.54172C2.04466 7.54172 1.76185 7.65584 1.53361 7.88408C1.30537 8.11231 1.19126 8.39513 1.19126 8.73252ZM1.19126 15.0834C1.19126 15.4208 1.30537 15.7037 1.53361 15.9319C1.76185 16.1601 2.04466 16.2742 2.38205 16.2742C2.71945 16.2742 3.00226 16.1601 3.2305 15.9319C3.45874 15.7037 3.57285 15.4208 3.57285 15.0834C3.57285 14.7461 3.45874 14.4632 3.2305 14.235C3.00226 14.0068 2.71945 13.8926 2.38205 13.8926C2.04466 13.8926 1.76185 14.0068 1.53361 14.235C1.30537 14.4632 1.19126 14.7461 1.19126 15.0834ZM9.12991 8.73252C9.12991 9.28823 9.32176 9.75793 9.70547 10.1416C10.0892 10.5253 10.5589 10.7172 11.1146 10.7172C11.6703 10.7172 12.14 10.5253 12.5237 10.1416C12.9074 9.75793 13.0992 9.28823 13.0992 8.73252C13.0992 8.17682 12.9074 7.70711 12.5237 7.32341C12.14 6.93971 11.6703 6.74786 11.1146 6.74786C10.5589 6.74786 10.0892 6.93971 9.70547 7.32341C9.32176 7.70711 9.12991 8.17682 9.12991 8.73252Z" fill="#474747"/>
</svg>
