<svg width="15" height="11" viewBox="0 0 15 11" fill="none" xmlns="http://www.w3.org/2000/svg">
<path d="M14.29 1.03125V9.96875C14.29 10.2438 14.185 10.4844 13.975 10.6906C13.765 10.8969 13.52 11 13.24 11H1.34004C1.06004 11 0.815039 10.8969 0.605039 10.6906C0.395039 10.4844 0.290039 10.2438 0.290039 9.96875V1.03125C0.290039 0.75625 0.395039 0.515625 0.605039 0.309375C0.815039 0.103125 1.06004 0 1.34004 0H13.24C13.52 0 13.765 0.103125 13.975 0.309375C14.185 0.515625 14.29 0.75625 14.29 1.03125ZM1.34004 2.90469H13.24V1.03125H1.34004V2.90469ZM1.34004 5.12188V9.96875H13.24V5.12188H1.34004Z" fill="#474747"/>
</svg>
