<svg width="28" height="28" viewBox="0 0 28 28" fill="none" xmlns="http://www.w3.org/2000/svg">
<path d="M0 6.055V0H6.055V2.1H2.1V6.055H0ZM0 28V21.945H2.1V25.9H6.055V28H0ZM21.945 28V25.9H25.9V21.945H28V28H21.945ZM25.9 6.055V2.1H21.945V0H28V6.055H25.9ZM21.98 22.015H24.185V24.22H21.98V22.015ZM21.98 17.605H24.185V19.81H21.98V17.605ZM19.775 19.81H21.98V22.015H19.775V19.81ZM17.57 22.015H19.775V24.22H17.57V22.015ZM15.365 19.81H17.57V22.015H15.365V19.81ZM19.775 15.4H21.98V17.605H19.775V15.4ZM17.57 17.605H19.775V19.81H17.57V17.605ZM15.365 15.4H17.57V17.605H15.365V15.4ZM24.185 3.78V12.6H15.365V3.78H24.185ZM12.6 15.4V24.22H3.78V15.4H12.6ZM12.6 3.78V12.6H3.78V3.78H12.6ZM10.85 22.47V17.15H5.53V22.47H10.85ZM10.85 10.85V5.53H5.53V10.85H10.85ZM22.435 10.85V5.53H17.115V10.85H22.435Z" fill="#474747"/>
</svg>
