<svg width="14" height="14" viewBox="0 0 14 14" fill="none" xmlns="http://www.w3.org/2000/svg">
<path d="M6.41667 10.8889H7.58333V7.58333H10.8889V6.41667H7.58333V3.11111H6.41667V6.41667H3.11111V7.58333H6.41667V10.8889ZM1.16667 14C0.855556 14 0.583333 13.8833 0.35 13.65C0.116667 13.4167 0 13.1444 0 12.8333V1.16667C0 0.855556 0.116667 0.583333 0.35 0.35C0.583333 0.116667 0.855556 0 1.16667 0H12.8333C13.1444 0 13.4167 0.116667 13.65 0.35C13.8833 0.583333 14 0.855556 14 1.16667V12.8333C14 13.1444 13.8833 13.4167 13.65 13.65C13.4167 13.8833 13.1444 14 12.8333 14H1.16667ZM1.16667 12.8333H12.8333V1.16667H1.16667V12.8333Z" fill="#474747"/>
</svg>
