<svg width="14" height="13" viewBox="0 0 14 13" fill="none" xmlns="http://www.w3.org/2000/svg">
<rect x="1.43236" y="0.433333" width="12.1333" height="12.1333" rx="1.34306" stroke="#474747" stroke-width="0.866667"/>
<circle cx="7.49961" cy="6.5" r="3.9" stroke="#474747" stroke-width="0.953333"/>
<rect x="7.06641" y="2.6" width="0.866667" height="1.73333" fill="#474747"/>
<rect x="4.46582" y="4.07948" width="0.866667" height="1.73333" transform="rotate(-45 4.46582 4.07948)" fill="#474747"/>
<rect x="7.06641" y="8.66666" width="0.866667" height="1.73333" fill="#474747"/>
<rect x="8.75586" y="8.36926" width="0.866667" height="1.73333" transform="rotate(-45 8.75586 8.36926)" fill="#474747"/>
<rect x="9.66602" y="6.93333" width="0.866667" height="1.73333" transform="rotate(-90 9.66602 6.93333)" fill="#474747"/>
<rect x="9.36816" y="5.30513" width="0.866667" height="1.73333" transform="rotate(-135 9.36816 5.30513)" fill="#474747"/>
<rect x="3.59961" y="6.93333" width="0.866667" height="1.73333" transform="rotate(-90 3.59961 6.93333)" fill="#474747"/>
<rect x="5.0791" y="9.59491" width="0.866667" height="1.73333" transform="rotate(-135 5.0791 9.59491)" fill="#474747"/>
<rect x="0.132812" y="2.6" width="1.73333" height="2.6" fill="#474747"/>
<rect x="0.132812" y="7.8" width="1.73333" height="2.6" fill="#474747"/>
<circle cx="7.49922" cy="6.5" r="1.3" fill="#474747"/>
</svg>
