<svg width="8" height="13" viewBox="0 0 8 13" fill="none" xmlns="http://www.w3.org/2000/svg">
<path fill-rule="evenodd" clip-rule="evenodd" d="M7.84994 4.24764C7.64986 4.43852 7.32547 4.43852 7.1254 4.24764L4.41368 1.66052L1.70196 4.24764C1.50189 4.43852 1.1775 4.43852 0.977418 4.24764C0.77734 4.05675 0.77734 3.74727 0.977418 3.55638L4.05141 0.623632C4.25148 0.432747 4.57587 0.432747 4.77595 0.623632L7.84994 3.55638C8.05002 3.74727 8.05002 4.05675 7.84994 4.24764Z" fill="white"/>
<path fill-rule="evenodd" clip-rule="evenodd" d="M0.97739 8.44426C1.17747 8.25337 1.50186 8.25337 1.70194 8.44426L4.41365 11.0314L7.12537 8.44426C7.32545 8.25337 7.64984 8.25337 7.84991 8.44426C8.04999 8.63514 8.04999 8.94463 7.84991 9.13551L4.77592 12.0683C4.57585 12.2591 4.25146 12.2591 4.05138 12.0683L0.97739 9.13551C0.777312 8.94463 0.777312 8.63514 0.97739 8.44426Z" fill="white"/>
</svg>
