<svg width="61" height="54" viewBox="0 0 61 54" fill="none" xmlns="http://www.w3.org/2000/svg">
<path d="M45.1488 37.932L59.5727 29.6033C60.3373 29.1608 60.8098 28.3404 60.8098 27.4599V10.8024C60.8098 9.92181 60.3373 9.10139 59.5727 8.65896L45.1488 0.33021C44.3842 -0.112215 43.4349 -0.10792 42.6747 0.33021L28.2508 8.65896C27.4862 9.10139 27.0137 9.92181 27.0137 10.8024V40.5694L16.898 46.4068L6.78241 40.5694V28.8902L16.898 23.0528L23.5688 26.9058V19.071L18.1351 15.9311C17.7614 15.7163 17.3319 15.6003 16.898 15.6003C16.4642 15.6003 16.0347 15.7163 15.661 15.9311L1.23707 24.2598C0.472492 24.7022 0 25.5227 0 26.4032V43.0607C0 43.9413 0.472492 44.7617 1.23707 45.2041L15.661 53.5329C16.4256 53.971 17.3705 53.971 18.1351 53.5329L32.559 45.2041C33.3236 44.7617 33.7961 43.9413 33.7961 43.0607V13.2937L33.9765 13.1906L43.9074 7.45626L54.0231 13.2937V24.9728L43.9074 30.8103L37.2453 26.9659V34.8007L42.6704 37.932C43.4349 38.3702 44.3842 38.3702 45.1445 37.932H45.1488Z" fill="url(#paint0_linear_41_2407)"/>
<defs>
<linearGradient id="paint0_linear_41_2407" x1="-0.197589" y1="44.693" x2="58.1982" y2="10.7981" gradientUnits="userSpaceOnUse">
<stop stop-color="#A726C1"/>
</linearGradient>
</defs>
</svg>
